<?xml version="1.0" encoding="UTF-8" standalone="no"?>
<!-- Created with Inkscape (http://www.inkscape.org/) -->

<svg
   version="1.1"
   id="svg824"
   xml:space="preserve"
   width="242.62932"
   height="75.746666"
   viewBox="0 0 242.62932 75.746666"
   sodipodi:docname="logo-avetana.svg"
   inkscape:version="1.1.1 (c3084ef, 2021-09-22)"
   xmlns:inkscape="http://www.inkscape.org/namespaces/inkscape"
   xmlns:sodipodi="http://sodipodi.sourceforge.net/DTD/sodipodi-0.dtd"
   xmlns="http://www.w3.org/2000/svg"
   xmlns:svg="http://www.w3.org/2000/svg"><defs
     id="defs828"><clipPath
       clipPathUnits="userSpaceOnUse"
       id="clipPath840"><path
         d="M 0,0 H 585 V 58 H 0 Z"
         id="path838" /></clipPath></defs><sodipodi:namedview
     id="namedview826"
     pagecolor="#ffffff"
     bordercolor="#999999"
     borderopacity="1"
     inkscape:pageshadow="0"
     inkscape:pageopacity="0"
     inkscape:pagecheckerboard="0"
     showgrid="false"
     inkscape:zoom="2.2018023"
     inkscape:cx="111.04539"
     inkscape:cy="34.971351"
     inkscape:window-width="1383"
     inkscape:window-height="800"
     inkscape:window-x="0"
     inkscape:window-y="23"
     inkscape:window-maximized="0"
     inkscape:current-layer="g834"
     width="243.46013px"
     fit-margin-left="0"
     fit-margin-top="0"
     fit-margin-right="0"
     fit-margin-bottom="0" /><g
     id="g830"
     inkscape:groupmode="layer"
     inkscape:label="Logo_avetana"
     transform="matrix(1.3333333,0,0,-1.3333333,-0.03733333,76.666665)"><g
       id="g832" /><g
       id="g834"><g
         id="g836"
         clip-path="url(#clipPath840)"><path
           d="m 11.316,19.555 c 0.603,0 1.166,0.012 1.696,0.058 -0.697,-1.16 -1.1,-2.503 -1.1,-3.972 v -1.024 c -0.48,-0.04 -0.99,-0.059 -1.537,-0.059 -3.703,0 -6.173,0.882 -7.995,2.704 -1.529,1.588 -2.352,3.88 -2.352,6.408 0,4.998 3.469,8.584 10.289,8.584 h 7.878 v 2.117 c 0,3.762 -1.882,5.585 -6.526,5.585 -3.293,0 -4.88,-0.764 -6.526,-2.881 l -3.939,3.704 c 2.822,3.292 5.761,4.292 10.7,4.292 8.172,0 12.288,-3.469 12.288,-10.23 V 24.073 c -0.988,-0.02 -1.765,-0.048 -2.926,-0.048 -1.127,0 -2.232,-0.186 -3.265,-0.532 0.13,0.624 0.194,1.346 0.194,2.176 v 2.411 h -6.996 c -3.528,0 -5.351,-1.587 -5.351,-4.292 0,-2.704 1.705,-4.233 5.468,-4.233"
           style="fill:#918f8f;fill-opacity:1;fill-rule:nonzero;stroke:none"
           id="path842" /><path
           d="m 16.901,21.26 c 0.526,0.525 0.884,1.238 1.088,2.177 1.035,0.35 2.145,0.538 3.277,0.538 1.161,0 1.938,0.028 2.926,0.048 V 14.91 h -5.88 v 2.705 c -1.843,-1.843 -3.602,-2.758 -6.35,-2.994 v 1.02 c 0,1.472 0.408,2.817 1.112,3.977 1.458,0.134 2.674,0.531 3.827,1.642"
           style="fill:#f68712;fill-opacity:1;fill-rule:nonzero;stroke:none"
           id="path844" /><path
           d="M 31.9,44.718 38.777,24.26 33.057,24.257 25.551,44.718 H 31.9"
           style="fill:#918f8f;fill-opacity:1;fill-rule:nonzero;stroke:none"
           id="path846" /><path
           d="m 36.486,14.91 -3.429,9.347 5.72,0.003 0.178,-0.531 0.171,0.511 5.662,-0.002 -3.422,-9.328 h -4.88"
           style="fill:#f68712;fill-opacity:1;fill-rule:nonzero;stroke:none"
           id="path848" /><path
           d="m 52.301,44.718 -7.505,-20.456 -5.664,-0.002 6.82,20.458 h 6.349"
           style="fill:#918f8f;fill-opacity:1;fill-rule:nonzero;stroke:none"
           id="path850" /><path
           d="m 65.246,14.558 c -6.071,0 -11.132,2.604 -12.811,9.678 l 5.977,-0.002 c 1.064,-2.835 3.447,-4.502 6.952,-4.502 3.351,0 5.115,0.94 7.231,3.057 l 3.822,-3.587 C 73.36,16.145 70.479,14.558 65.246,14.558"
           style="fill:#f68712;fill-opacity:1;fill-rule:nonzero;stroke:none"
           id="path852" /><path
           d="M 88.179,39.603 V 24.27 h -5.997 v 15.333 h -3.41 v 4.586 h 3.41 V 57.5 h 5.997 V 44.189 h 5.761 v -4.586 h -5.761"
           style="fill:#918f8f;fill-opacity:1;fill-rule:nonzero;stroke:none"
           id="path854" /><path
           d="m 82.182,23.2 v 1.03 l 5.997,-0.001 v -0.735 c 0,-2.175 1.058,-3.469 3.292,-3.469 H 93.94 V 14.91 h -3.586 c -5.585,0 -8.172,3.998 -8.172,8.29"
           style="fill:#f68712;fill-opacity:1;fill-rule:nonzero;stroke:none"
           id="path856" /><path
           d="m 106.644,28.08 c -3.311,0 -5.12,-1.399 -5.329,-3.808 l -5.824,-10e-4 c 0.27,4.682 3.728,7.983 10.271,7.983 h 7.879 v 2.117 c 0,3.762 -1.882,5.585 -6.526,5.585 -3.293,0 -4.88,-0.764 -6.526,-2.881 l -3.939,3.704 c 2.822,3.292 5.761,4.292 10.7,4.292 8.172,0 12.287,-3.469 12.287,-10.23 V 24.273 h -6.068 c 0.048,0.427 0.072,0.892 0.072,1.396 v 2.411 h -6.997"
           style="fill:#918f8f;fill-opacity:1;fill-rule:nonzero;stroke:none"
           id="path858" /><path
           d="m 112.347,21.26 c 0.664,0.664 1.061,1.628 1.217,2.967 h 6.073 V 14.91 h -5.879 v 2.705 c -2.175,-2.175 -4.233,-3.057 -7.937,-3.057 -3.704,0 -6.173,0.882 -7.995,2.704 -1.529,1.588 -2.352,3.88 -2.352,6.408 l 0.015,0.559 5.822,-10e-4 c -0.011,-0.143 -0.017,-0.29 -0.017,-0.44 0,-2.704 1.705,-4.233 5.468,-4.233 2.293,0 3.998,0.177 5.585,1.705"
           style="fill:#f68712;fill-opacity:1;fill-rule:nonzero;stroke:none"
           id="path860" /><path
           d="m 125.288,14.91 h 5.997 v 9.316 h -5.997 z"
           style="fill:#f68712;fill-opacity:1;fill-rule:nonzero;stroke:none"
           id="path862" /><path
           d="m 131.285,33.077 v -8.803 h -5.997 v 20.444 h 5.879 v -2.999 c 2.058,2.235 4.939,3.352 7.937,3.352 3.058,0 5.586,-1 7.35,-2.705 2.292,-2.234 2.998,-5.056 2.998,-8.407 v -9.685 h -5.997 v 8.803 c 0,4.645 -2.646,6.644 -5.997,6.644 -3.351,0 -6.173,-2.058 -6.173,-6.644"
           style="fill:#918f8f;fill-opacity:1;fill-rule:nonzero;stroke:none"
           id="path864" /><path
           d="m 143.455,14.91 v 9.316 l 5.997,-10e-4 V 14.91 h -5.997"
           style="fill:#f68712;fill-opacity:1;fill-rule:nonzero;stroke:none"
           id="path866" /><path
           d="m 164.045,28.08 c -3.311,0 -5.12,-1.398 -5.33,-3.805 h -5.824 c 0.272,4.679 3.73,7.979 10.272,7.979 h 7.878 v 2.117 c 0,3.762 -1.882,5.585 -6.526,5.585 -3.292,0 -4.88,-0.764 -6.526,-2.881 l -3.939,3.704 c 2.822,3.292 5.762,4.292 10.7,4.292 8.172,0 12.288,-3.469 12.288,-10.23 V 24.275 h -6.068 c 0.047,0.426 0.071,0.89 0.071,1.394 v 2.411 h -6.996"
           style="fill:#918f8f;fill-opacity:1;fill-rule:nonzero;stroke:none"
           id="path868" /><path
           d="m 169.747,21.26 c 0.664,0.664 1.061,1.627 1.217,2.965 h 6.074 V 14.91 h -5.879 v 2.705 c -2.176,-2.175 -4.233,-3.057 -7.938,-3.057 -3.703,0 -6.173,0.882 -7.995,2.704 -1.529,1.588 -2.352,3.88 -2.352,6.408 l 0.015,0.555 h 5.822 c -0.011,-0.142 -0.017,-0.288 -0.017,-0.437 0,-2.704 1.706,-4.233 5.468,-4.233 2.293,0 3.998,0.177 5.585,1.705"
           style="fill:#f68712;fill-opacity:1;fill-rule:nonzero;stroke:none"
           id="path870" /><path
           d="m 57.78,28.08 c 0,-1.428 0.21,-2.709 0.62,-3.814 l -5.972,-0.002 c -0.381,1.619 -0.586,3.472 -0.586,5.58 0,9.642 4.997,15.227 12.64,15.227 7.996,0 12.64,-5.879 12.64,-14.345 V 28.08 Z m 13.404,4.174 c -0.059,1.823 -0.235,2.705 -0.823,4.057 -0.941,2.234 -3.057,3.762 -5.879,3.762 -2.822,0 -4.997,-1.528 -5.938,-3.762 -0.588,-1.352 -0.706,-2.234 -0.764,-4.057 h 13.404"
           style="fill:#918f8f;fill-opacity:1;fill-rule:evenodd;stroke:none"
           id="path872" /><path
           d="M 181.99999,24 H 23 C 23,24 12,25 12,14.25 12,3.75 21.875,5 21.875,5"
           style="fill:none;stroke:#231f20;stroke-width:1;stroke-linecap:butt;stroke-linejoin:miter;stroke-miterlimit:3.864;stroke-dasharray:none;stroke-opacity:1"
           id="path874"
           sodipodi:nodetypes="ccsc" /><path
           d="M 31.889,0.762 V 9.291 H 30.224 V 5.805 H 27.337 V 9.291 H 25.672 V 0.762 h 1.665 v 3.57 h 2.887 v -3.57 h 1.665"
           style="fill:#918f8f;fill-opacity:1;fill-rule:nonzero;stroke:none"
           id="path876" /><path
           d="m 39.385,3.397 v 0.695 c 0,1.713 -0.982,2.983 -2.719,2.983 -1.617,0 -2.719,-1.15 -2.719,-3.186 0,-2.528 1.413,-3.199 2.886,-3.199 1.126,0 1.737,0.348 2.372,0.983 L 38.259,2.595 C 37.864,2.2 37.528,2.008 36.845,2.008 35.971,2.008 35.48,2.595 35.48,3.397 Z M 37.851,4.463 H 35.48 c 0.012,0.276 0.048,0.444 0.144,0.671 0.167,0.371 0.515,0.647 1.042,0.647 0.527,0 0.874,-0.276 1.042,-0.647 0.096,-0.227 0.131,-0.395 0.143,-0.671"
           style="fill:#918f8f;fill-opacity:1;fill-rule:evenodd;stroke:none"
           id="path878" /><path
           d="m 46.042,0.762 v 4.109 c 0,1.461 -0.91,2.204 -2.659,2.204 -1.042,0 -1.641,-0.192 -2.252,-0.863 l 0.994,-0.97 c 0.324,0.371 0.599,0.515 1.198,0.515 0.827,0 1.162,-0.299 1.162,-0.982 V 4.463 h -1.473 c -1.45,0 -2.133,-0.814 -2.133,-1.808 0,-0.551 0.18,-1.054 0.516,-1.402 0.371,-0.371 0.886,-0.551 1.593,-0.551 0.718,0 1.114,0.18 1.533,0.599 V 0.762 Z m -1.557,2.3 c 0,-0.383 -0.06,-0.635 -0.228,-0.791 -0.275,-0.263 -0.551,-0.299 -0.982,-0.299 -0.611,0 -0.898,0.288 -0.898,0.719 0,0.443 0.311,0.706 0.874,0.706 h 1.234 V 3.062"
           style="fill:#918f8f;fill-opacity:1;fill-rule:evenodd;stroke:none"
           id="path880" /><path
           d="M 50.867,0.762 V 2.08 h -0.599 c -0.395,0 -0.551,0.191 -0.551,0.563 V 9.291 H 48.159 V 2.547 c 0,-0.886 0.54,-1.785 1.821,-1.785 h 0.887"
           style="fill:#918f8f;fill-opacity:1;fill-rule:nonzero;stroke:none"
           id="path882" /><path
           d="M 55.414,0.762 V 2.08 h -0.563 c -0.371,0 -0.539,0.203 -0.539,0.563 v 2.994 h 1.102 V 6.823 H 54.312 V 8.668 H 52.755 V 6.823 H 52.096 V 5.637 h 0.659 v -3.09 c 0,-0.886 0.539,-1.785 1.809,-1.785 h 0.85"
           style="fill:#918f8f;fill-opacity:1;fill-rule:nonzero;stroke:none"
           id="path884" /><path
           d="m 62.463,0.762 v 4.037 c 0,1.317 -0.718,2.276 -2.084,2.276 -0.551,0 -1.078,-0.216 -1.497,-0.647 V 9.291 H 57.325 V 0.762 h 1.557 v 3.809 c 0,0.815 0.515,1.102 1.006,1.102 0.491,0 1.018,-0.275 1.018,-1.102 V 0.762 h 1.557"
           style="fill:#918f8f;fill-opacity:1;fill-rule:nonzero;stroke:none"
           id="path886" /><path
           d="M 73.524,7.805 V 9.291 H 67.403 V 7.805 h 2.228 V 0.762 h 1.665 v 7.043 h 2.228"
           style="fill:#918f8f;fill-opacity:1;fill-rule:nonzero;stroke:none"
           id="path888" /><path
           d="m 79.594,3.397 v 0.695 c 0,1.713 -0.982,2.983 -2.719,2.983 -1.617,0 -2.719,-1.15 -2.719,-3.186 0,-2.528 1.413,-3.199 2.887,-3.199 1.125,0 1.736,0.348 2.371,0.983 L 78.468,2.595 C 78.073,2.2 77.737,2.008 77.055,2.008 c -0.875,0 -1.366,0.587 -1.366,1.389 z m -1.533,1.066 h -2.372 c 0.012,0.276 0.048,0.444 0.144,0.671 0.167,0.371 0.515,0.647 1.042,0.647 0.527,0 0.874,-0.276 1.042,-0.647 0.096,-0.227 0.132,-0.395 0.144,-0.671"
           style="fill:#918f8f;fill-opacity:1;fill-rule:evenodd;stroke:none"
           id="path890" /><path
           d="M 84.179,0.762 V 2.08 H 83.58 c -0.395,0 -0.551,0.191 -0.551,0.563 V 9.291 H 81.472 V 2.547 c 0,-0.886 0.539,-1.785 1.821,-1.785 h 0.886"
           style="fill:#918f8f;fill-opacity:1;fill-rule:nonzero;stroke:none"
           id="path892" /><path
           d="m 90.751,3.397 v 0.695 c 0,1.713 -0.983,2.983 -2.719,2.983 -1.617,0 -2.72,-1.15 -2.72,-3.186 0,-2.528 1.414,-3.199 2.887,-3.199 1.126,0 1.737,0.348 2.372,0.983 L 89.625,2.595 C 89.229,2.2 88.894,2.008 88.211,2.008 c -0.874,0 -1.365,0.587 -1.365,1.389 z m -1.534,1.066 h -2.371 c 0.012,0.276 0.048,0.444 0.144,0.671 0.167,0.371 0.515,0.647 1.042,0.647 0.527,0 0.874,-0.276 1.042,-0.647 0.095,-0.227 0.131,-0.395 0.143,-0.671"
           style="fill:#918f8f;fill-opacity:1;fill-rule:evenodd;stroke:none"
           id="path894" /><path
           d="m 101.505,0.762 v 3.989 c 0,0.683 -0.18,1.27 -0.683,1.773 -0.348,0.347 -0.911,0.551 -1.533,0.551 -0.779,0 -1.342,-0.24 -1.869,-0.791 -0.395,0.539 -0.958,0.791 -1.653,0.791 -0.575,0 -1.15,-0.228 -1.557,-0.647 V 7.003 H 92.689 V 0.762 h 1.557 v 3.773 c 0,0.851 0.551,1.138 1.042,1.138 0.491,0 1.03,-0.287 1.03,-1.138 V 0.762 h 1.557 v 3.809 c 0,0.815 0.563,1.102 1.042,1.102 0.491,0 1.03,-0.287 1.03,-1.138 V 0.762 h 1.558"
           style="fill:#918f8f;fill-opacity:1;fill-rule:evenodd;stroke:none"
           id="path896" /><path
           d="m 108.406,0.762 v 4.109 c 0,1.461 -0.91,2.204 -2.659,2.204 -1.042,0 -1.641,-0.192 -2.252,-0.863 l 0.994,-0.97 c 0.324,0.371 0.599,0.515 1.198,0.515 0.826,0 1.162,-0.299 1.162,-0.982 V 4.463 h -1.473 c -1.45,0 -2.133,-0.814 -2.133,-1.808 0,-0.551 0.18,-1.054 0.516,-1.402 0.371,-0.371 0.886,-0.551 1.593,-0.551 0.718,0 1.114,0.18 1.533,0.599 V 0.762 Z m -1.557,2.3 c 0,-0.383 -0.06,-0.635 -0.228,-0.791 -0.275,-0.263 -0.551,-0.299 -0.982,-0.299 -0.611,0 -0.898,0.288 -0.898,0.719 0,0.443 0.311,0.706 0.874,0.706 h 1.234 V 3.062"
           style="fill:#918f8f;fill-opacity:1;fill-rule:evenodd;stroke:none"
           id="path898" /><path
           d="M 113.386,0.762 V 2.08 h -0.563 c -0.371,0 -0.539,0.203 -0.539,0.563 v 2.994 h 1.102 v 1.186 h -1.102 v 1.845 h -1.557 V 6.823 h -0.659 V 5.637 h 0.659 v -3.09 c 0,-0.886 0.539,-1.785 1.809,-1.785 h 0.85"
           style="fill:#918f8f;fill-opacity:1;fill-rule:nonzero;stroke:none"
           id="path900" /><path
           d="m 115.273,8.069 h 1.593 v 1.27 h -1.593 z m 0.024,-7.307 h 1.557 v 6.24 h -1.557 z"
           style="fill:#918f8f;fill-opacity:1;fill-rule:evenodd;stroke:none"
           id="path902" /><path
           d="m 123.629,1.541 -1.054,1.042 c -0.323,-0.348 -0.599,-0.491 -1.006,-0.491 -0.371,0 -0.659,0.132 -0.886,0.407 -0.24,0.299 -0.348,0.73 -0.348,1.39 0,0.658 0.108,1.077 0.348,1.377 0.227,0.276 0.515,0.407 0.886,0.407 0.407,0 0.683,-0.144 1.006,-0.491 l 1.054,1.054 c -0.551,0.575 -1.197,0.839 -2.06,0.839 -1.246,0 -2.791,-0.659 -2.791,-3.186 0,-2.528 1.545,-3.199 2.791,-3.199 0.863,0 1.509,0.276 2.06,0.851"
           style="fill:#918f8f;fill-opacity:1;fill-rule:nonzero;stroke:none"
           id="path904" /><path
           d="m 134.248,3.278 c 0,0.754 -0.204,1.377 -0.659,1.808 -0.359,0.336 -0.85,0.551 -1.629,0.659 l -1.006,0.144 c -0.347,0.047 -0.623,0.179 -0.791,0.335 -0.179,0.168 -0.251,0.395 -0.251,0.611 0,0.587 0.431,1.078 1.317,1.078 0.563,0 1.21,-0.072 1.749,-0.587 l 1.054,1.042 c -0.73,0.707 -1.581,0.994 -2.755,0.994 -1.844,0 -2.97,-1.066 -2.97,-2.587 0,-0.719 0.203,-1.27 0.611,-1.677 0.383,-0.371 0.922,-0.599 1.653,-0.706 l 1.03,-0.144 c 0.395,-0.06 0.587,-0.144 0.754,-0.3 0.18,-0.168 0.264,-0.419 0.264,-0.719 0,-0.682 -0.527,-1.053 -1.509,-1.053 -0.791,0 -1.522,0.179 -2.061,0.718 l -1.078,-1.078 c 0.839,-0.85 1.821,-1.126 3.115,-1.126 1.784,0 3.162,0.935 3.162,2.588"
           style="fill:#918f8f;fill-opacity:1;fill-rule:nonzero;stroke:none"
           id="path906" /><path
           d="m 141.324,3.397 v 0.695 c 0,1.713 -0.982,2.983 -2.719,2.983 -1.617,0 -2.719,-1.15 -2.719,-3.186 0,-2.528 1.414,-3.199 2.887,-3.199 1.126,0 1.737,0.348 2.372,0.983 l -0.946,0.922 c -0.396,-0.395 -0.731,-0.587 -1.414,-0.587 -0.874,0 -1.365,0.587 -1.365,1.389 z m -1.533,1.066 h -2.371 c 0.012,0.276 0.048,0.444 0.143,0.671 0.168,0.371 0.515,0.647 1.042,0.647 0.527,0 0.875,-0.276 1.043,-0.647 0.096,-0.227 0.131,-0.395 0.143,-0.671"
           style="fill:#918f8f;fill-opacity:1;fill-rule:evenodd;stroke:none"
           id="path908" /><path
           d="m 147.826,6.487 c -0.431,0.432 -0.862,0.588 -1.473,0.588 -0.671,0 -1.27,-0.312 -1.569,-0.671 v 0.599 h -1.521 V 0.762 h 1.557 v 3.761 c 0,0.791 0.527,1.15 1.006,1.15 0.383,0 0.587,-0.131 0.826,-0.371 l 1.174,1.185"
           style="fill:#918f8f;fill-opacity:1;fill-rule:evenodd;stroke:none"
           id="path910" /><path
           d="m 154.194,7.003 h -1.641 l -1.258,-3.857 -1.269,3.857 h -1.641 l 2.299,-6.241 h 1.222 l 2.288,6.241"
           style="fill:#918f8f;fill-opacity:1;fill-rule:nonzero;stroke:none"
           id="path912" /><path
           d="m 155.592,8.069 h 1.593 v 1.27 h -1.593 z m 0.024,-7.307 h 1.557 v 6.24 h -1.557 z"
           style="fill:#918f8f;fill-opacity:1;fill-rule:evenodd;stroke:none"
           id="path914" /><path
           d="m 163.949,1.541 -1.054,1.042 c -0.324,-0.348 -0.599,-0.491 -1.007,-0.491 -0.371,0 -0.658,0.132 -0.886,0.407 -0.24,0.299 -0.347,0.73 -0.347,1.39 0,0.658 0.107,1.077 0.347,1.377 0.228,0.276 0.515,0.407 0.886,0.407 0.408,0 0.683,-0.144 1.007,-0.491 l 1.054,1.054 c -0.551,0.575 -1.198,0.839 -2.061,0.839 -1.245,0 -2.79,-0.659 -2.79,-3.186 0,-2.528 1.545,-3.199 2.79,-3.199 0.863,0 1.51,0.276 2.061,0.851"
           style="fill:#918f8f;fill-opacity:1;fill-rule:nonzero;stroke:none"
           id="path916" /><path
           d="m 170.571,3.397 v 0.695 c 0,1.713 -0.982,2.983 -2.719,2.983 -1.617,0 -2.719,-1.15 -2.719,-3.186 0,-2.528 1.413,-3.199 2.887,-3.199 1.126,0 1.736,0.348 2.371,0.983 l -0.946,0.922 C 169.05,2.2 168.714,2.008 168.032,2.008 c -0.875,0 -1.366,0.587 -1.366,1.389 z m -1.533,1.066 h -2.372 c 0.012,0.276 0.048,0.444 0.144,0.671 0.167,0.371 0.515,0.647 1.042,0.647 0.527,0 0.874,-0.276 1.042,-0.647 0.096,-0.227 0.132,-0.395 0.144,-0.671"
           style="fill:#918f8f;fill-opacity:1;fill-rule:evenodd;stroke:none"
           id="path918" /><path
           d="m 177.204,2.727 c 0,1.053 -0.622,1.713 -1.856,1.832 l -0.982,0.096 c -0.552,0.048 -0.647,0.311 -0.647,0.539 0,0.311 0.263,0.599 0.886,0.599 0.539,0 1.09,-0.096 1.45,-0.419 l 0.958,0.97 c -0.599,0.563 -1.414,0.731 -2.384,0.731 -1.27,0 -2.408,-0.695 -2.408,-1.989 0,-1.15 0.695,-1.641 1.821,-1.749 l 0.982,-0.095 c 0.491,-0.048 0.659,-0.264 0.659,-0.576 0,-0.466 -0.563,-0.646 -1.102,-0.646 -0.479,0 -1.15,0.072 -1.665,0.587 l -1.018,-1.018 c 0.791,-0.791 1.677,-0.899 2.659,-0.899 1.474,0 2.647,0.659 2.647,2.037"
           style="fill:#918f8f;fill-opacity:1;fill-rule:nonzero;stroke:none"
           id="path920" /></g></g></g></svg>
