<svg xmlns="http://www.w3.org/2000/svg" width="198.759" height="87.205">
  <path fill="white" d="M103.829 56.908h1.251v12.518h-1.251zm-98.553 0v5.311H1.251v-5.311H0v12.518h1.251v-6.043h4.025v6.043H6.51V56.908zM17.04 69.425l-2.969-12.517h-1.323L9.78 69.425h1.233l.751-3.254h3.273l.733 3.254h1.27zm-2.272-4.415h-2.754l.697-3.112c.268-1.162.555-2.503.68-3.434.143.931.412 2.234.68 3.415l.697 3.131zm11.691.75c0-1.843-.893-2.611-1.876-3.005.856-.41 1.519-1.181 1.519-2.683 0-2.003-1.073-3.165-2.969-3.165h-2.826v12.519h2.826c1.967 0 3.326-1.126 3.326-3.666m-1.61-5.651c0 1.18-.518 2.091-1.823 2.091h-1.467v-4.131h1.52c1.162 0 1.77.717 1.77 2.04m.359 5.722c0 1.593-.644 2.433-2.004 2.433h-1.645v-4.901h1.485c1.341-.001 2.164.876 2.164 2.468m10.8-.071c0-1.843-.893-2.611-1.878-3.005.859-.41 1.52-1.181 1.52-2.683 0-2.003-1.072-3.165-2.969-3.165h-2.824v12.519h2.824c1.969 0 3.327-1.126 3.327-3.666m-1.61-5.651c0 1.18-.518 2.091-1.823 2.091h-1.467v-4.131h1.52c1.162 0 1.77.717 1.77 2.04m.358 5.722c0 1.593-.643 2.433-2.003 2.433h-1.645v-4.901h1.485c1.34-.001 2.163.876 2.163 2.468m10.211 3.595v-1.162h-4.311v-4.936h2.575v-1.182h-2.575V58.07h4.095v-1.162h-5.346v12.518zm8.546 0v-1.162h-3.989V56.908h-1.252v12.518zm4.501-1.573H56.53l-.215 3.415h.769zm13.064-7.476c0-2.396-1.395-3.469-3.236-3.469h-2.897v12.518h1.252v-5.4h1.484c1.877-.001 3.397-1.164 3.397-3.649m-1.251.072c0 1.572-.733 2.413-2.092 2.413h-1.538V58.07h1.591c1.306 0 2.039.823 2.039 2.379m11.24 2.718c0-4.06-1.215-6.456-3.576-6.456-2.361 0-3.577 2.414-3.577 6.456 0 4.06 1.199 6.455 3.558 6.455 2.362 0 3.595-2.413 3.595-6.455m-1.251 0c0 3.505-.912 5.293-2.307 5.293-1.413 0-2.343-1.806-2.343-5.293 0-3.505.895-5.293 2.289-5.293 1.412 0 2.361 1.806 2.361 5.293m11.248 6.259V56.908h-1.233v5.311h-4.026v-5.311h-1.25v12.518h1.25v-6.044h4.026v6.044zm9.082 0v-1.162h-3.989V56.908h-1.251v12.518zm14.921-4.364V63.06h-2.896v1.181h1.68v.947c0 2.163-.679 3.273-2.021 3.273-1.413 0-2.271-1.807-2.271-5.293 0-3.453.823-5.294 2.218-5.294.858 0 1.359.483 1.877 2.02l1.127-.5c-.535-1.557-1.34-2.683-2.969-2.683-2.342 0-3.505 2.486-3.505 6.457 0 4.023 1.127 6.455 3.452 6.455 2.235 0 3.308-1.914 3.308-4.561m14.103 4.364-1.343-2.646c.395-.912.733-2.058 1.056-3.397l-1.09-.322a21.92 21.92 0 0 1-.662 2.306l-2.415-4.47c-.357-.697-.519-1.181-.519-1.842 0-.68.359-1.18 1.146-1.18.715 0 1.127.428 1.645 1.377l.931-.734c-.572-1.055-1.271-1.806-2.522-1.806-1.592 0-2.45 1.056-2.45 2.433 0 .769.233 1.396.733 2.342l.466 1.002c-1.233 1.108-1.967 2.344-1.967 3.898 0 1.896.768 3.237 2.575 3.237.982 0 1.732-.375 2.396-1.449l.679 1.252h1.341zm-2.629-2.486c-.537 1.216-1.038 1.521-1.682 1.521-.947 0-1.431-.858-1.431-2.182 0-1.038.447-1.95 1.271-2.719l1.842 3.38zm16.271-6.563c0-2.396-1.396-3.469-3.237-3.469h-2.897v12.518h1.252v-5.4h1.485c1.877-.001 3.397-1.164 3.397-3.649m-1.251.072c0 1.572-.733 2.413-2.093 2.413h-1.538V58.07h1.593c1.304 0 2.038.823 2.038 2.379m10.257 8.976-2.97-12.517h-1.324l-2.967 12.517h1.233l.751-3.254h3.271l.733 3.254h1.273zm-2.272-4.415h-2.753l.696-3.112c.268-1.162.555-2.503.68-3.434.144.931.412 2.234.68 3.415l.697 3.131zm11.78 4.416-1.967-5.99c1.162-.483 1.932-1.538 1.932-3.184 0-2.271-1.395-3.344-3.201-3.344h-3.005v12.518h1.252v-5.669c.232 0 1.574 0 1.734-.019l1.879 5.688h1.376zm-1.288-9.103c0 1.502-.715 2.308-2.073 2.308h-1.628V58.07h1.699c1.269 0 2.002.787 2.002 2.253m10.102-2.27v-1.147h-6.295v1.147h2.521v11.374h1.234V58.053zm9.669 11.373V56.908h-1.18v7.189c0 .75.017 1.966.035 2.432-.286-.698-.822-1.949-1.306-3.076l-2.843-6.545H173.3v12.518h1.18v-7.51c0-.752-.018-1.95-.018-2.434.304.788.84 2.04 1.287 3.076l3.005 6.867h1.055zm9.403 0v-1.162h-4.31v-4.936h2.575v-1.182h-2.575V58.07h4.096v-1.162h-5.349v12.518zm9.548 0-1.967-5.99c1.162-.483 1.932-1.538 1.932-3.184 0-2.271-1.396-3.344-3.202-3.344h-3.005v12.518h1.252v-5.669c.233 0 1.575 0 1.735-.019l1.878 5.688h1.377zm-1.288-9.103c0 1.502-.715 2.308-2.074 2.308h-1.628V58.07h1.7c1.267 0 2.002.787 2.002 2.253M142.58 80.626v6.392h.69v-5.559h.018l1.982 5.559h.744v-6.392h-.691v4.71h-.017l-1.646-4.71h-1.08zm-5.666 0v4.71c0 .259.03.497.093.712.062.216.159.402.292.559a1.4 1.4 0 0 0 .505.367c.204.088.45.133.739.133s.535-.045.738-.133c.204-.089.372-.212.506-.367.133-.156.23-.343.292-.559.062-.215.093-.453.093-.712v-4.71h-.69v4.692c0 .159-.014.312-.04.46s-.075.275-.146.386a.762.762 0 0 1-.288.26.977.977 0 0 1-.465.099.965.965 0 0 1-.465-.099.746.746 0 0 1-.288-.26c-.07-.11-.119-.238-.146-.386s-.04-.301-.04-.46v-4.692h-.69zm-5.294 0v.584h1.311v5.808h.69V81.21h1.311v-.584h-3.312zm-3.763 0v6.392h2.763v-.584h-2.071v-5.808h-.692zm-4.354 0-1.408 6.392h.69l.38-1.894h1.63l.381 1.894h.689l-1.406-6.392h-.956zm.469.478h.018l.708 3.436h-1.434l.708-3.436zm-8.482-.478 1.062 6.392h.585l1.009-5.019h.018l1.01 5.019h.584l1.026-6.392h-.638l-.708 4.993h-.017l-.992-4.993h-.567l-.956 4.993h-.017l-.762-4.993h-.637zm-5.222 6.392h.689v-2.992l.903-.035 1.028 3.027h.725l-1.079-3.169c.354-.124.613-.326.778-.606a1.85 1.85 0 0 0 .248-.961c0-.266-.042-.5-.128-.703-.085-.204-.207-.377-.363-.519s-.342-.249-.558-.322a2.154 2.154 0 0 0-.703-.111h-1.541v6.391zm.689-5.808h.604c.496 0 .837.095 1.026.284.188.188.283.463.283.823 0 .359-.095.635-.283.823-.189.189-.53.282-1.026.282h-.604V81.21zm-5.948-.584v6.392h3.028v-.584h-2.338v-2.461h1.646v-.585h-1.646V81.21h2.231v-.584h-2.921zm-5.701 0 1.505 6.392h.638l1.505-6.392h-.689l-1.125 5.064h-.018l-1.125-5.064h-.691zm-1.894 1.647c-.029-.562-.185-.99-.465-1.289-.28-.298-.65-.446-1.111-.446-.23 0-.44.035-.628.105-.189.07-.352.172-.487.302-.136.13-.241.286-.315.469-.073.183-.11.386-.11.611 0 .307.063.568.191.787.126.219.284.416.473.594.189.177.395.338.62.481.224.146.43.294.619.447.189.154.347.32.474.5.127.181.19.392.19.633 0 .343-.085.604-.257.784-.171.18-.401.271-.69.271-.343 0-.601-.109-.774-.328-.175-.218-.268-.517-.28-.895h-.637c.006.267.046.51.119.731.074.221.18.411.32.57.138.159.308.283.508.372.201.088.425.133.673.133.531 0 .937-.144 1.217-.43.281-.286.421-.686.421-1.199 0-.343-.064-.634-.191-.873a2.45 2.45 0 0 0-.473-.628 3.834 3.834 0 0 0-.62-.481 7.45 7.45 0 0 1-.619-.435 2.437 2.437 0 0 1-.474-.479 1.006 1.006 0 0 1-.19-.619c0-.248.079-.45.239-.606.159-.156.371-.234.637-.234.165 0 .307.029.425.088.118.06.217.141.296.244.08.103.141.224.182.363.042.139.068.29.08.456h.637zm-8.765-1.647v6.392h.69v-5.559h.018l1.983 5.559h.744v-6.392h-.69v4.71h-.019l-1.646-4.71h-1.08zm-5.17 0v6.392h3.027v-.584h-2.337v-2.461h1.647v-.585h-1.647V81.21H86.4v-.584h-2.921zm-10.755-.425h.584v-.902h-.584v.902zm1.168 0h.585v-.902h-.585v.902zm1.385 2.103c-.086-.417-.208-.756-.368-1.018a1.505 1.505 0 0 0-.571-.572 1.542 1.542 0 0 0-.739-.176c-.271 0-.517.058-.739.176-.221.119-.412.31-.571.572-.159.262-.282.601-.367 1.018a7.633 7.633 0 0 0-.129 1.519c0 .596.043 1.102.129 1.518.085.416.208.756.367 1.019s.35.453.571.57c.222.118.468.178.739.178.272 0 .518-.06.739-.178.222-.117.413-.308.571-.57.16-.263.282-.603.368-1.019s.129-.922.129-1.518c0-.597-.043-1.103-.129-1.519m-.651 2.855c-.059.348-.138.624-.239.827-.1.204-.218.345-.354.421a.865.865 0 0 1-.434.115.864.864 0 0 1-.433-.115c-.136-.076-.254-.217-.354-.421-.101-.203-.181-.479-.239-.827-.06-.349-.089-.794-.089-1.337s.029-.988.089-1.337c.058-.349.138-.624.239-.828.1-.203.218-.343.354-.42a.874.874 0 0 1 .867 0c.136.077.254.217.354.42.101.204.18.479.239.828.06.349.089.794.089 1.337s-.028.989-.089 1.337m-9.48-4.533v6.392h.637v-5.86h.017l1.328 5.86h.452l1.327-5.86h.018v5.86h.638v-6.392h-1.098l-1.089 4.834h-.018l-1.115-4.834h-1.097zm-5.666 6.392h.69v-2.992l.903-.035 1.027 3.027h.725l-1.08-3.169c.355-.124.614-.326.779-.606a1.85 1.85 0 0 0 .248-.961c0-.266-.042-.5-.128-.703a1.454 1.454 0 0 0-.921-.841 2.15 2.15 0 0 0-.703-.111h-1.54v6.391zm.69-5.808h.602c.496 0 .838.095 1.027.284.189.188.283.463.283.823 0 .359-.094.635-.283.823-.189.189-.531.282-1.027.282h-.602V81.21zm-5.948-.584v6.392h3.028v-.584h-2.338v-2.461h1.647v-.585h-1.647V81.21h2.232v-.584h-2.922zm-5.701 0 1.505 6.392h.637l1.505-6.392h-.69l-1.124 5.064h-.019l-1.124-5.064h-.69zm32.493 4.24v-1.025H79.53v.604h.86v.486c0 1.109-.347 1.678-1.035 1.678-.725 0-1.164-.926-1.164-2.714 0-1.769.422-2.713 1.136-2.713.441 0 .697.248.963 1.035l.578-.256c-.275-.798-.687-1.375-1.522-1.375-1.201 0-1.797 1.273-1.797 3.309 0 2.063.578 3.31 1.769 3.31 1.146 0 1.696-.981 1.696-2.339m70.688 0v-1.025h-1.485v.604h.861v.486c0 1.109-.348 1.678-1.036 1.678-.724 0-1.164-.926-1.164-2.714 0-1.769.422-2.713 1.138-2.713.439 0 .696.248.962 1.035l.577-.256c-.274-.798-.687-1.375-1.521-1.375-1.2 0-1.797 1.273-1.797 3.309 0 2.063.578 3.31 1.77 3.31 1.145 0 1.695-.981 1.695-2.339" class="typo-fill"/>
  <path fill="#0070C0" d="M77.445 21.981C77.445 9.841 87.286 0 99.426 0c12.141 0 21.982 9.841 21.982 21.981 0 11.853-9.382 21.515-21.125 21.965l3.837-3.221c2.755-2.31 2.868-7.692 1.526-9.292L92.173 42.737a21.253 21.253 0 0 1-1.981-.803l16.446-13.801c2.756-2.31 2.868-7.692 1.525-9.292L84.831 38.418a21.81 21.81 0 0 1-1.364-1.322l25.689-21.555c2.755-2.311 2.868-7.693 1.525-9.292L79.897 32.08a21.886 21.886 0 0 1-2.452-10.099" class="logo-fill"/>
</svg>
